<svg width="179" height="31" viewBox="0 0 179 31" fill="none" xmlns="http://www.w3.org/2000/svg">
<path d="M47.5913 22.5277V20.8534C47.2145 21.5305 46.6826 22.0366 45.9955 22.3566C45.3084 22.6766 44.4292 22.8403 43.3652 22.8403C41.3556 22.8403 39.6859 22.1482 38.3412 20.7715C36.9966 19.3948 36.3242 17.6832 36.3242 15.6368C36.3242 14.6768 36.4941 13.7615 36.8266 12.9057C37.1665 12.0425 37.6467 11.2834 38.2673 10.6286C38.9397 9.90672 39.6933 9.37837 40.5134 9.02861C41.3335 8.68629 42.2644 8.51514 43.2914 8.51514C44.3183 8.51514 45.1237 8.67885 45.8403 9.01373C46.5496 9.3486 47.1259 9.84719 47.5618 10.5169V8.86489H50.6427V22.5352H47.5987L47.5913 22.5277ZM39.5455 15.5847C39.5455 16.7381 39.9223 17.6981 40.6833 18.472C41.4443 19.246 42.3678 19.6329 43.4687 19.6329C44.4661 19.6329 45.3379 19.246 46.0989 18.4646C46.8525 17.6832 47.2367 16.7753 47.2367 15.7335C47.2367 14.6247 46.8525 13.6722 46.0989 12.8685C45.3379 12.0722 44.4513 11.6704 43.4317 11.6704C42.4122 11.6704 41.4517 12.0499 40.6907 12.809C39.9371 13.568 39.5529 14.4908 39.5529 15.5847H39.5455Z" fill="#1F9DD5"/>
<path d="M51.7257 8.86279H55.0652L58.3678 18.403L62.0102 8.86279H65.3128L57.9836 26.9534H54.7254L56.6241 22.1461L51.7109 8.86279H51.7257Z" fill="#1F9DD5"/>
<path d="M65.5273 15.6358C65.5273 14.6758 65.7047 13.7605 66.0519 12.8972C66.3992 12.034 66.909 11.2601 67.5739 10.5903C68.2536 9.90571 69.022 9.37735 69.879 9.00527C70.7361 8.63319 71.6227 8.45459 72.5462 8.45459C73.5215 8.45459 74.4302 8.61831 75.2577 8.94574C76.0852 9.27317 76.8462 9.76432 77.5333 10.4192C78.2426 11.1038 78.7893 11.9001 79.1735 12.8005C79.5577 13.7009 79.7498 14.6237 79.7498 15.5688C79.7498 16.6106 79.5799 17.5631 79.2474 18.4264C78.9075 19.2896 78.4051 20.0635 77.7328 20.763C77.0604 21.47 76.2921 21.9984 75.4276 22.363C74.5632 22.7202 73.6249 22.9062 72.6127 22.9062C71.6005 22.9062 70.6622 22.7202 69.8273 22.363C68.9851 21.9984 68.2241 21.4551 67.5296 20.7258C66.872 20.0114 66.377 19.2301 66.0371 18.3743C65.6973 17.5185 65.5347 16.6106 65.5347 15.6581L65.5273 15.6358ZM68.7856 15.6134C68.7856 16.8785 69.1328 17.8831 69.8199 18.6273C70.507 19.3715 71.4454 19.7361 72.6349 19.7361C73.8244 19.7361 74.7331 19.3566 75.4276 18.5975C76.1221 17.8385 76.4694 16.819 76.4694 15.5316C76.4694 14.3781 76.1074 13.433 75.3759 12.6889C74.6445 11.9447 73.7357 11.5801 72.6349 11.5801C71.534 11.5801 70.5735 11.9522 69.8569 12.7038C69.1402 13.4554 68.7856 14.4228 68.7856 15.606V15.6134Z" fill="#1F9DD5"/>
<path d="M91.4993 13.7233C91.1225 13.0089 90.6348 12.4731 90.0512 12.1233C89.4601 11.7661 88.7656 11.5875 87.9603 11.5875C86.889 11.5875 85.995 11.9745 85.2783 12.7559C84.5617 13.5372 84.1996 14.5121 84.1996 15.6879C84.1996 16.8636 84.5691 17.8162 85.3005 18.5826C86.0393 19.3566 86.9629 19.7361 88.0711 19.7361C88.9281 19.7361 89.6374 19.5501 90.2063 19.1854C90.7752 18.8133 91.1963 18.2627 91.4771 17.5259H94.8461C94.4324 19.2003 93.6345 20.51 92.4376 21.4626C91.2481 22.4151 89.8 22.8914 88.0933 22.8914C87.0885 22.8914 86.1575 22.7128 85.3079 22.3481C84.4508 21.9909 83.6825 21.4551 82.988 20.7482C82.3452 20.0859 81.8428 19.3119 81.4808 18.4189C81.1187 17.5259 80.9414 16.6255 80.9414 15.7027C80.9414 14.78 81.104 13.8423 81.4364 13.0089C81.7689 12.1754 82.2491 11.4164 82.8919 10.7466C83.6012 9.99501 84.3991 9.422 85.2857 9.03504C86.1723 8.64807 87.1254 8.45459 88.145 8.45459C89.8073 8.45459 91.2481 8.93085 92.4597 9.88338C93.6788 10.8359 94.4767 12.1159 94.8683 13.7233H91.4993Z" fill="#1F9DD5"/>
<path d="M96.2188 15.6358C96.2188 14.6758 96.3961 13.7605 96.7433 12.8972C97.0906 12.034 97.6003 11.2601 98.2653 10.5903C98.945 9.90571 99.7134 9.37735 100.57 9.00527C101.427 8.63319 102.314 8.45459 103.238 8.45459C104.213 8.45459 105.122 8.61831 105.942 8.94574C106.769 9.27317 107.53 9.76432 108.217 10.4192C108.927 11.1038 109.473 11.9001 109.858 12.8005C110.242 13.7009 110.434 14.6237 110.434 15.5688C110.434 16.6106 110.264 17.5631 109.931 18.4264C109.592 19.2896 109.089 20.0635 108.417 20.763C107.744 21.47 106.976 21.9984 106.112 22.363C105.247 22.7202 104.309 22.9062 103.297 22.9062C102.285 22.9062 101.346 22.7202 100.511 22.363C99.6691 21.9984 98.9081 21.4551 98.2136 20.7258C97.556 20.0114 97.061 19.2301 96.7211 18.3743C96.3813 17.5185 96.2188 16.6106 96.2188 15.6581V15.6358ZM99.477 15.6134C99.477 16.8785 99.8242 17.8831 100.511 18.6273C101.206 19.3715 102.137 19.7361 103.326 19.7361C104.516 19.7361 105.425 19.3566 106.119 18.5975C106.814 17.8385 107.161 16.819 107.161 15.5316C107.161 14.3781 106.799 13.433 106.067 12.6889C105.336 11.9447 104.427 11.5801 103.319 11.5801C102.211 11.5801 101.258 11.9522 100.541 12.7038C99.8242 13.4554 99.4696 14.4228 99.4696 15.606L99.477 15.6134Z" fill="#1F9DD5"/>
<path d="M115.53 8.8636V10.4189C115.988 9.80125 116.52 9.33987 117.119 9.0422C117.717 8.74454 118.397 8.5957 119.158 8.5957C120.133 8.5957 120.99 8.78174 121.714 9.15383C122.446 9.52591 123.051 10.084 123.532 10.8282C123.842 11.3268 124.071 11.8923 124.204 12.5249C124.337 13.1574 124.411 14.0876 124.411 15.3006V22.5339H121.256V16.4838C121.256 14.6532 121.049 13.3956 120.628 12.7184C120.207 12.0412 119.483 11.6989 118.456 11.6989C117.429 11.6989 116.646 12.0709 116.188 12.8225C115.73 13.5742 115.493 14.8616 115.493 16.6773V22.5264H112.449V8.8636H115.53Z" fill="#1F9DD5"/>
<path d="M130.257 8.8636V10.4189C130.715 9.80125 131.247 9.33987 131.845 9.0422C132.444 8.74454 133.123 8.5957 133.884 8.5957C134.86 8.5957 135.717 8.78174 136.441 9.15383C137.172 9.52591 137.778 10.084 138.258 10.8282C138.569 11.3268 138.798 11.8923 138.931 12.5249C139.064 13.1574 139.137 14.0876 139.137 15.3006V22.5339H135.983V16.4838C135.983 14.6532 135.776 13.3956 135.355 12.7184C134.933 12.0412 134.209 11.6989 133.182 11.6989C132.155 11.6989 131.372 12.0709 130.914 12.8225C130.456 13.5742 130.22 14.8616 130.22 16.6773V22.5264H127.176V8.8636H130.257Z" fill="#1F9DD5"/>
<path d="M144.344 16.7006C144.448 17.6829 144.839 18.4643 145.512 19.0299C146.184 19.5954 147.048 19.8782 148.105 19.8782C148.814 19.8782 149.449 19.7294 150.011 19.4317C150.572 19.1341 151.023 18.7173 151.348 18.1741H154.754C154.178 19.6624 153.314 20.8233 152.168 21.6493C151.023 22.4753 149.693 22.8846 148.193 22.8846C147.181 22.8846 146.25 22.706 145.401 22.3414C144.551 21.9842 143.79 21.4484 143.11 20.7414C142.468 20.0717 141.973 19.2903 141.618 18.4122C141.263 17.5267 141.086 16.6262 141.086 15.696C141.086 14.7658 141.248 13.8431 141.574 13.0096C141.899 12.1687 142.379 11.4096 143.014 10.7399C143.709 10.0032 144.485 9.43761 145.356 9.03576C146.228 8.64135 147.13 8.44043 148.06 8.44043C149.235 8.44043 150.336 8.70833 151.356 9.25157C152.375 9.78736 153.24 10.5464 153.956 11.5287C154.392 12.1166 154.717 12.7789 154.924 13.5007C155.131 14.23 155.242 15.0635 155.242 16.0086C155.242 16.083 155.242 16.1946 155.227 16.3509C155.22 16.5072 155.212 16.6188 155.212 16.6932H144.344V16.7006ZM151.836 14.1779C151.563 13.27 151.112 12.5705 150.469 12.0943C149.834 11.618 149.028 11.3799 148.06 11.3799C147.218 11.3799 146.472 11.6403 145.8 12.1538C145.127 12.6673 144.684 13.3445 144.455 14.1779H151.836Z" fill="#1F9DD5"/>
<path d="M166.968 13.7233C166.591 13.0089 166.104 12.4731 165.52 12.1233C164.929 11.7661 164.234 11.5875 163.429 11.5875C162.358 11.5875 161.464 11.9745 160.747 12.7559C160.03 13.5372 159.668 14.5121 159.668 15.6879C159.668 16.8636 160.038 17.8162 160.769 18.5826C161.508 19.3566 162.432 19.7361 163.54 19.7361C164.397 19.7361 165.106 19.5501 165.675 19.1854C166.244 18.8133 166.665 18.2627 166.946 17.5259H170.315C169.901 19.2003 169.103 20.51 167.906 21.4626C166.717 22.4151 165.269 22.8914 163.562 22.8914C162.557 22.8914 161.626 22.7128 160.777 22.3481C159.92 21.9909 159.151 21.4551 158.457 20.7482C157.814 20.0859 157.312 19.3119 156.95 18.4189C156.587 17.5259 156.41 16.6255 156.41 15.7027C156.41 14.78 156.573 13.8423 156.905 13.0089C157.238 12.1754 157.718 11.4164 158.361 10.7466C159.07 9.99501 159.868 9.422 160.754 9.03504C161.641 8.64807 162.594 8.45459 163.614 8.45459C165.276 8.45459 166.717 8.93085 167.928 9.88338C169.148 10.8359 169.945 12.1159 170.337 13.7233H166.968Z" fill="#1F9DD5"/>
<path d="M173.486 22.5281V11.6931H171.41V8.85783H173.486V4.4375H176.641V8.85783H178.725V11.6931H176.641V22.5281H173.486Z" fill="#1F9DD5"/>
<path d="M25.8727 19.4254C25.651 19.4254 25.4368 19.4478 25.2299 19.485L19.6 9.66946C19.3193 9.18576 18.706 9.0146 18.2184 9.29738L17.7825 9.5504C17.3023 9.83318 17.1323 10.4508 17.4131 10.942L23.043 20.7575C22.5036 21.4049 22.1712 22.2458 22.1712 23.1537C22.1712 25.2076 23.8335 26.882 25.8727 26.882C27.9118 26.882 29.5742 25.2076 29.5742 23.1537C29.5742 21.0998 27.9118 19.4254 25.8727 19.4254ZM25.8727 24.3444C25.2225 24.3444 24.6906 23.8086 24.6906 23.1537C24.6906 22.4988 25.2225 21.963 25.8727 21.963C26.5228 21.963 27.0548 22.4988 27.0548 23.1537C27.0548 23.8086 26.5228 24.3444 25.8727 24.3444Z" fill="#1F9DD5"/>
<path d="M19.3761 24.4246C19.9302 24.4246 20.3883 23.9707 20.3883 23.4051V22.8991C20.3883 22.3409 19.9376 21.8796 19.3761 21.8796H8.07203C7.55485 20.4508 6.19541 19.4238 4.59215 19.4238C2.55299 19.4238 0.890625 21.0982 0.890625 23.1521C0.890625 25.206 2.55299 26.8803 4.59215 26.8803C6.18802 26.8803 7.54746 25.8534 8.07203 24.4246H19.3761ZM4.59954 24.3427C3.94937 24.3427 3.41742 23.8069 3.41742 23.1521C3.41742 22.4972 3.94937 21.9614 4.59954 21.9614C5.24971 21.9614 5.78167 22.4972 5.78167 23.1521C5.78167 23.8069 5.24971 24.3427 4.59954 24.3427Z" fill="#1F9DD5"/>
<path d="M6.85451 16.6855C6.57375 17.1692 6.74368 17.7943 7.22392 18.0771L7.65983 18.3301C8.14007 18.6129 8.76068 18.4418 9.04144 17.9581L14.59 8.27649C14.7969 8.3137 15.0186 8.33602 15.2328 8.33602C17.272 8.33602 18.9343 6.66166 18.9343 4.60777C18.9343 2.55388 17.2794 0.87207 15.2328 0.87207C13.1863 0.87207 11.5313 2.54644 11.5313 4.60033C11.5313 5.51565 11.8564 6.34911 12.4031 6.99653L6.85451 16.6781V16.6855ZM15.2328 3.41711C15.883 3.41711 16.4149 3.9529 16.4149 4.60777C16.4149 5.26263 15.883 5.79843 15.2328 5.79843C14.5826 5.79843 14.0507 5.26263 14.0507 4.60777C14.0507 3.9529 14.5826 3.41711 15.2328 3.41711Z" fill="#1F9DD5"/>
<path d="M2.74657 18.1977H3.24897C3.80309 18.1977 4.26117 17.7438 4.26117 17.1782V16.9252C4.26117 12.9067 6.43332 9.20079 9.92797 7.25108L10.1496 7.12458C10.6372 6.84924 10.8146 6.23158 10.5412 5.74043L10.2974 5.29394C10.024 4.80279 9.41079 4.62419 8.92317 4.89953L8.70152 5.02604C4.40893 7.42224 1.73438 11.984 1.73438 16.9252V17.1782C1.73438 17.7363 2.18506 18.1977 2.74657 18.1977Z" fill="#1F9DD5"/>
<path d="M22.2629 26.7837C21.9895 26.2925 21.3689 26.1288 20.8887 26.4042L20.667 26.5307C19.0195 27.4758 17.1428 27.9743 15.2367 27.9743C13.3305 27.9743 11.609 27.513 10.0205 26.6497L9.79888 26.5307C9.31125 26.2628 8.69803 26.4488 8.43205 26.94L8.18824 27.3865C7.92226 27.8776 8.10697 28.4953 8.59459 28.7632L8.81624 28.8822C10.7741 29.9538 12.9906 30.5119 15.2367 30.5119C17.4827 30.5119 19.8913 29.8943 21.923 28.7334L22.1447 28.6069C22.6323 28.3315 22.7949 27.7064 22.5215 27.2227L22.2703 26.7837H22.2629Z" fill="#1F9DD5"/>
<path d="M20.4173 7.17572L20.639 7.30223C24.0745 9.26682 26.2097 12.9504 26.2097 16.9243V17.1773C26.2097 17.7354 26.6604 18.1968 27.2219 18.1968H27.7243C28.2785 18.1968 28.7365 17.7428 28.7365 17.1773V16.9243C28.7365 12.0351 26.1137 7.50315 21.8876 5.09206L21.666 4.96556C21.1783 4.69022 20.5651 4.86137 20.2917 5.34508L20.0405 5.78414C19.7672 6.27528 19.9371 6.89294 20.4247 7.16828L20.4173 7.17572Z" fill="#1F9DD5"/>
</svg>
